# AST/ASF file generated using VICON BodyLanguage
# -----------------------------------------------
:version 1.10
:name VICON
:units
  mass 1.0
  length 0.45
  angle deg
:documentation
   .ast/.asf automatically generated from VICON data using
   VICON BodyBuilder and BodyLanguage model FoxedUp or BRILLIANT.MOD
:root
   order TX TY TZ RX RY RZ
   axis XYZ
   position 0 0 0  
   orientation 0 0 0 
:bonedata
  begin
     id 1 
     name lhipjoint
     direction 0.596438 -0.722117 0.35044 
     length 2.43043 
     axis 0 0 0  XYZ
  end
  begin
     id 2 
     name lfemur
     direction 0.34202 -0.939693 0  
     length 7.0339  
     axis 0 0 20  XYZ
    dof rx ry rz
    limits (-160.0 20.0)
           (-70.0 70.0)
           (-60.0 70.0)
  end
  begin
     id 3 
     name ltibia
     direction 0.34202 -0.939693 0   
     length 7.56602   
     axis 0 0 20   XYZ
    dof rx
    limits (-10.0 170.0)
  end
  begin
     id 4 
     name lfoot
     direction 0.0985677 -0.270812 0.957572   
     length 1.85172   
     axis -90 7.62852e-016 20   XYZ
    dof rx rz
    limits (-45.0 90.0)
           (-70.0 20.0)
  end
  begin
     id 5 
     name ltoes
     direction 1.53534e-011 -4.21843e-011 1   
     length 0.929904   
     axis -90 7.62852e-016 20   XYZ
    dof rx
    limits (-90.0 20.0)
  end
  begin
     id 6 
     name rhipjoint
     direction -0.585088 -0.729594 0.354068   
     length 2.40552  
     axis 0 0 0  XYZ 
  end
  begin
     id 7 
     name rfemur
     direction -0.34202 -0.939693 0   
     length 7.12573   
     axis 0 0 -20   XYZ
    dof rx ry rz
    limits (-160.0 20.0)
           (-70.0 70.0)
           (-70.0 60.0)
  end
  begin
     id 8 
     name rtibia
     direction -0.34202 -0.939693 0   
     length 7.35777   
     axis 0 0 -20   XYZ
    dof rx
    limits (-10.0 170.0)
 end
 begin
     id 9 
     name rfoot
     direction -0.120907 -0.33219 0.935431   
     length 2.0994  
     axis -90 -7.62852e-016 -20   XYZ
    dof rx rz
    limits (-45.0 90.0)
           (-20.0 70.0)
  end
  begin
     id 10 
     name rtoes
     direction -1.53577e-011 -4.21787e-011 1   
     length 1.04244   
     axis -90 -7.62852e-016 -20   XYZ
    dof rx
    limits (-90.0 20.0)
  end
  begin
     id 11 
     name lowerback
     direction 0.00268363 0.993603 -0.112896   
     length 2.15839   
     axis 0 0 0   XYZ
    dof rx ry rz
    limits (-20.0 45.0)
           (-30.0 30.0)
           (-30.0 30.0)
  end
  begin
     id 12 
     name upperback
     direction 0.0272563 0.999411 -0.0208618   
     length 2.16443   
     axis 0 0 0   XYZ
    dof rx ry rz
    limits (-20.0 45.0)
           (-30.0 30.0)
           (-30.0 30.0)
  end
  begin
     id 13 
     name thorax
     direction 0.0254655 0.999174 0.0316806   
     length 2.19003   
     axis 0 0 0   XYZ
    dof rx ry rz
    limits (-20.0 45.0)
           (-30.0 30.0)
           (-30.0 30.0)
  end
  begin
     id 14 
     name lowerneck
     direction -0.0102178 0.988048 0.15381   
     length 1.61507   
     axis 0 0 0   XYZ
    dof rx ry rz
    limits (-20.0 45.0)
           (-30.0 30.0)
           (-30.0 30.0)
  end
  begin
     id 15 
     name upperneck
     direction -0.0061965 0.994088 -0.108398   
     length 1.64042   
     axis 0 0 0   XYZ
    dof rx ry rz
    limits (-20.0 45.0)
           (-30.0 30.0)
           (-30.0 30.0)
  end
  begin
     id 16
     name head
     direction -0.00151929 0.998591 -0.0530385  
     length 1.64343  
     axis 0 0 0   XYZ
    dof rx ry rz
    limits (-20.0 45.0)
           (-30.0 30.0)
           (-30.0 30.0)
  end
  begin
     id 17 
     name lclavicle
     direction 0.948974 0.284245 -0.136574  
     length 3.3483  
     axis 0 0 0   XYZ
    dof ry rz
    limits (-20.0 10.0)
           (0.0 20.0)
  end
  begin
     id 18 
     name lhumerus
     direction 1 -4.48961e-011 1.68576e-027   
     length 4.93485   
     axis -180 -30 -90   XYZ
    dof rx ry rz
    limits (-60.0 90.0)
           (-90.0 90.0)
           (-90.0 90.0)
  end
  begin
     id 19
     name lradius
     direction 1 -4.48965e-011 -2.46405e-027   
     length 3.41719   
     axis -180 -30 -90   XYZ
    dof rx
    limits (-10.0 170.0)
  end
  begin
     id 20
     name lwrist
     direction 1 -4.48968e-011 -8.00486e-028   
     length 1.7086   
     axis 3.27501e-015 90 90   XYZ
    dof ry
    limits (-180.0 0.0)
 end
  begin
     id 21 
     name lhand
     direction 1 -4.48977e-011 -1.60161e-027   
     length 0.6241   
     axis 1.02148e-015 90 90   XYZ
    dof rx rz
    limits (-90.0 90.0)
           (-45.0 45.0)
  end
  begin
     id 22 
     name lfingers
     direction 1 -4.49049e-011 -3.21275e-027   
     length 0.503166   
     axis 2.04295e-015 90 90   XYZ
    dof rx
    limits (0.0 90.0)
  end
  begin
     id 23
     name lthumb
     direction 0.707107 -6.34975e-011 0.707107   
     length 0.722448   
     axis -90 45 -1.62303e-014   XYZ
    dof rx rz
    limits (-45.0 45.0)
           (-45.0 45.0)
  end
  begin
     id 24 
     name rclavicle
     direction -0.904485 0.355099 -0.236246   
     length 3.18329  
     axis 0 0 0   XYZ 
    dof ry rz
    limits (-10.0 20.0)
           (-20.0 0.0)
  end
  begin
     id 25 
     name rhumerus
     direction -1 -4.48953e-011 1.32816e-027  
     length 5.22034   
     axis -180 30 90   XYZ
    dof rx ry rz
    limits (-90.0 60.0)
           (-90.0 90.0)
           (-90.0 90.0)
  end
  begin
     id 26 
     name rradius
     direction -1 -4.48965e-011 -3.93727e-027   
     length 3.41809   
     axis -180 30 90   XYZ
    dof rx
    limits (-10.0 170.0)
  end
  begin
     id 27 
     name rwrist
     direction -1 -4.48962e-011 -8.003e-028   
     length 1.70904   
     axis 3.27501e-015 -90 -90   XYZ
    dof ry
    limits (-180.0 0.0)
  end
  begin
     id 28
     name rhand
     direction -1 -4.49008e-011 -1.60365e-027   
     length 0.77534   
     axis 1.02148e-015 -90 -90   XYZ
    dof rx rz
    limits (-90.0 90.0)
           (-45.0 45.0)
  end
  begin
     id 29
     name rfingers
     direction -1 -4.49001e-011 -3.2064e-027   
     length 0.625099   
     axis 2.04295e-015 -90 -90   XYZ
    dof rx
    limits (0.0 90.0)
  end
  begin
     id 30
     name rthumb
     direction -0.707107 -6.34989e-011 0.707107   
     length 0.897521   
     axis -90 -45 1.62303e-014   XYZ
    dof rx rz
    limits (-45.0 45.0)
           (-45.0 45.0)
  end
:hierarchy
  begin
    root lhipjoint rhipjoint lowerback
    lhipjoint lfemur
    lfemur ltibia
    ltibia lfoot
    lfoot ltoes
    rhipjoint rfemur
    rfemur rtibia
    rtibia rfoot
    rfoot rtoes
    lowerback upperback
    upperback thorax
    thorax lowerneck lclavicle rclavicle
    lowerneck upperneck
    upperneck head
    lclavicle lhumerus
    lhumerus lradius
    lradius lwrist
    lwrist lhand lthumb
    lhand lfingers
    rclavicle rhumerus
    rhumerus rradius
    rradius rwrist
    rwrist rhand rthumb
    rhand rfingers
  end

#!OML:ASF \\sashay\E\Suitcase\Project 1\Capture day 1\Session 1\Male1.ASF
:FULLY-SPECIFIED
:DEGREES
291
root 1.07811 17.4496 -27.8729 5.34222 -1.40768 -1.61688
lowerback 1.21142 0.908499 -0.711581
upperback -1.13274 1.22018 1.32685
thorax -1.88369 0.628842 1.72442
lowerneck -19.622 -1.1674 1.62856
upperneck 15.3682 -1.02679 -5.23845
head 7.94169 -0.93317 -2.14518
rclavicle -5.03174e-015 -1.03368e-014
rhumerus -29.4689 -24.4036 -70.2537
rradius 21.3396
rwrist -1.64081
rhand -18.7808 28.3983
rfingers 7.12502
rthumb 7.51674 -1.44817
lclavicle -5.03174e-015 -1.03368e-014
lhumerus -37.4044 15.1077 76.9067
lradius 25.723
lwrist -12.3465
lhand -1.06271 41.6278
lfingers 7.12502
lthumb 24.5721 70.0709
rfemur 12.7067 3.52384 23.9047
rtibia 18.299
rfoot -7.5218 -8.00659
rtoes 8.47447
lfemur -26.5205 0.240071 -18.779
ltibia 23.5437
lfoot -11.5899 -0.969292
ltoes 2.5835
292
root 1.11905 17.4581 -27.7663 5.27502 -1.48889 -1.56396
lowerback 1.31092 0.970497 -0.651807
upperback -1.1647 1.30324 1.26166
thorax -1.97243 0.669693 1.61944
lowerneck -19.4194 -1.17234 2.1942
upperneck 15.2257 -1.08651 -5.8132
head 7.84971 -0.983301 -2.43216
rclavicle 2.82026e-015 2.38542e-015
rhumerus -30.137 -24.2608 -69.9727
rradius 21.4518
rwrist -1.75613
rhand -18.5079 28.6613
rfingers 7.12502
rthumb 7.78014 -1.17552
lclavicle 2.82026e-015 2.38542e-015
lhumerus -37.3611 14.2924 77.2132
lradius 25.9694
lwrist -11.865
lhand -1.16663 40.8003
lfingers 7.12502
lthumb 24.4725 69.2569
rfemur 12.0301 3.2895 23.5571
rtibia 20.0611
rfoot -6.65074 -7.64049
rtoes 8.79373
lfemur -26.0999 0.728724 -19.1295
ltibia 23.6655
lfoot -11.538 -1.88164
ltoes 4.1591
293
root 1.15443 17.4599 -27.6493 5.21979 -1.35828 -1.31777
lowerback 1.32386 0.896173 -0.821033
upperback -1.24126 1.20005 1.21839
thorax -2.05749 0.621179 1.6723
lowerneck -19.45 -1.28815 2.03131
upperneck 15.7026 -1.21092 -5.65913
head 8.01061 -1.04026 -2.37836
rclavicle -1.19271e-014 -1.13307e-014
rhumerus -30.6739 -24.4566 -69.6376
rradius 21.454
rwrist -1.52096
rhand -18.7691 28.6788
rfingers 7.12502
rthumb 7.52799 -1.1672
lclavicle -1.19271e-014 -1.13307e-014
lhumerus -37.5338 13.838 77.4583
lradius 26.4052
lwrist -11.3933
lhand -1.44047 40.2968
lfingers 7.12502
lthumb 24.21 68.7886
rfemur 11.3021 3.00578 23.1657
rtibia 21.9949
rfoot -5.9504 -7.89048
rtoes 10.8698
lfemur -25.6738 0.881164 -19.6291
ltibia 23.654
lfoot -11.7445 -2.14417
ltoes 4.83716
294
root 1.18395 17.4691 -27.5241 5.06783 -1.19219 -1.16929
lowerback 1.25522 0.765219 -0.884669
upperback -1.2181 1.02299 1.16866
thorax -1.98898 0.532661 1.66373
lowerneck -19.1539 -1.29279 1.96692
upperneck 15.6989 -1.22979 -5.49528
head 7.95878 -1.03278 -2.31034
rclavicle -1.02126e-014 -6.55989e-015
rhumerus -31.1178 -24.1926 -69.5151
rradius 21.368
rwrist -1.33542
rhand -18.5082 28.5997
rfingers 7.12502
rthumb 7.77984 -1.23721
lclavicle -1.02126e-014 -6.55989e-015
lhumerus -37.6793 13.1985 77.7134
lradius 26.9253
lwrist -10.8069
lhand -1.28616 40.6006
lfingers 7.12502
lthumb 24.3579 69.0727
rfemur 10.6535 2.8563 23.0084
rtibia 24.0677
rfoot -4.67499 -8.2232
rtoes 13.5668
lfemur -24.9941 1.18372 -20.0139
ltibia 23.5234
lfoot -12.2183 -2.67635
ltoes 5.62936
295
root 1.22256 17.474 -27.4153 4.98241 -1.43777 -0.952216
lowerback 1.22553 0.718433 -0.850439
upperback -1.15819 0.9579 0.992476
thorax -1.90468 0.497402 1.46644
lowerneck -19.0877 -1.27862 2.01397
upperneck 15.7532 -1.26024 -5.29842
head 7.96466 -1.02363 -2.25562
rclavicle 1.22998e-015 3.27995e-015
rhumerus -31.3267 -24.5465 -69.4306
rradius 21.0625
rwrist -1.08766
rhand -18.3948 28.8704
rfingers 7.12502
rthumb 7.88933 -0.962398
lclavicle 1.22998e-015 3.27995e-015
lhumerus -37.6012 12.7653 77.7263
lradius 27.3798
lwrist -10.5557
lhand -0.970232 41.0307
lfingers 7.12502
lthumb 24.6607 69.4617
rfemur 9.77553 2.43356 22.4105
rtibia 26.172
rfoot -3.69255 -7.89728
rtoes 14.0897
lfemur -24.395 1.0677 -20.3954
ltibia 23.3699
lfoot -12.4614 -2.15574
ltoes 4.01505
